<svg width="256" height="256" viewBox="0 0 256 256" fill="none" xmlns="http://www.w3.org/2000/svg">
  <rect width="256" height="256" rx="40" fill="#F8FAFC"/>
  <circle cx="128" cy="95" r="46" fill="#CBD5E1"/>
  <path d="M48 219C52 178 85 146 128 146C171 146 204 178 208 219" fill="#CBD5E1"/>
  <circle cx="128" cy="95" r="40" fill="#E2E8F0"/>
  <path d="M60 219C64 183 92 158 128 158C164 158 192 183 196 219" fill="#E2E8F0"/>
  <path d="M128 115C141.255 115 152 104.255 152 91C152 77.7452 141.255 67 128 67C114.745 67 104 77.7452 104 91C104 104.255 114.745 115 128 115Z" fill="#94A3B8"/>
  <path d="M84 206C88 181 106 164 128 164C150 164 168 181 172 206" fill="#94A3B8"/>
</svg>
